<?xml version="1.0" encoding="UTF-8"?>
<!DOCTYPE svg PUBLIC "-//W3C//DTD SVG 1.1//EN" "http://www.w3.org/Graphics/SVG/1.1/DTD/svg11.dtd">
<svg xmlns="http://www.w3.org/2000/svg" version="1.1" width="700px" height="200px" style="shape-rendering:geometricPrecision; text-rendering:geometricPrecision; image-rendering:optimizeQuality; fill-rule:evenodd; clip-rule:evenodd" xmlns:xlink="http://www.w3.org/1999/xlink">
<g><path style="opacity:1" fill="#fefefe" d="M -0.5,-0.5 C 232.833,-0.5 466.167,-0.5 699.5,-0.5C 699.5,66.1667 699.5,132.833 699.5,199.5C 466.167,199.5 232.833,199.5 -0.5,199.5C -0.5,132.833 -0.5,66.1667 -0.5,-0.5 Z"/></g>
<g><path style="opacity:1" fill="#2b3135" d="M 128.5,41.5 C 120.917,41.851 118.25,38.351 120.5,31C 119.775,26.9157 117.442,25.5823 113.5,27C 112.134,28.5998 111.134,30.4332 110.5,32.5C 107.949,30.1063 105.949,27.273 104.5,24C 103.167,23.3333 101.833,23.3333 100.5,24C 98.5952,25.4213 96.5952,26.588 94.5,27.5C 93.4448,24.9272 93.2782,22.2605 94,19.5C 102.864,8.32046 113.698,5.82046 126.5,12C 133.221,18.4165 135.388,26.2498 133,35.5C 132.668,38.5433 131.168,40.5433 128.5,41.5 Z"/></g>
<g><path style="opacity:1" fill="#f2dacb" d="M 128.5,41.5 C 128.993,43.8056 129.326,46.139 129.5,48.5C 125.456,49.3558 121.789,51.0224 118.5,53.5C 118.5,51.5 118.5,49.5 118.5,47.5C 113.96,49.1508 109.293,49.6508 104.5,49C 99.0317,42.8475 95.6984,35.6808 94.5,27.5C 96.5952,26.588 98.5952,25.4213 100.5,24C 101.833,23.3333 103.167,23.3333 104.5,24C 105.949,27.273 107.949,30.1063 110.5,32.5C 111.134,30.4332 112.134,28.5998 113.5,27C 117.442,25.5823 119.775,26.9157 120.5,31C 118.25,38.351 120.917,41.851 128.5,41.5 Z"/></g>
<g><path style="opacity:1" fill="#458ac1" d="M 129.5,48.5 C 137.03,48.6947 142.03,52.3614 144.5,59.5C 149.592,73.8623 152.925,88.529 154.5,103.5C 155.194,108.805 155.528,114.138 155.5,119.5C 154.539,117.735 154.205,115.735 154.5,113.5C 146.804,113.646 139.138,113.313 131.5,112.5C 128.273,112.324 125.273,111.657 122.5,110.5C 121.167,104.5 119.833,98.5 118.5,92.5C 124.152,85.2074 129.319,77.5407 134,69.5C 135.326,61.8288 132.159,58.3288 124.5,59C 119.597,62.2943 116.263,66.7943 114.5,72.5C 112.385,65.5481 113.718,59.2148 118.5,53.5C 121.789,51.0224 125.456,49.3558 129.5,48.5 Z"/></g>
<g><path style="opacity:1" fill="#3284ca" d="M 529.5,50.5 C 532.862,50.0695 535.695,51.0695 538,53.5C 538.333,66.1667 538.667,78.8333 539,91.5C 545.074,86.2143 551.241,81.0477 557.5,76C 564.864,73.2717 567.697,75.7717 566,83.5C 559.074,89.0474 552.241,94.7141 545.5,100.5C 553.486,108.986 561.652,117.319 570,125.5C 570.229,133.239 566.729,135.406 559.5,132C 553.032,124.53 546.198,117.364 539,110.5C 538.667,117.167 538.333,123.833 538,130.5C 534.333,134.5 530.667,134.5 527,130.5C 526.333,104.5 526.333,78.5 527,52.5C 527.995,51.9341 528.828,51.2674 529.5,50.5 Z"/></g>
<g><path style="opacity:1" fill="#3184ca" d="M 226.5,56.5 C 228.857,56.3367 231.19,56.5034 233.5,57C 234.667,57.5 235.5,58.3333 236,59.5C 236.667,79.5 236.667,99.5 236,119.5C 232.133,131.358 223.966,135.858 211.5,133C 204.182,131.707 200.682,127.54 201,120.5C 202.438,119.282 204.105,118.615 206,118.5C 209.788,119.978 213.622,121.312 217.5,122.5C 220.962,122.54 223.129,120.873 224,117.5C 224.333,97.8333 224.667,78.1667 225,58.5C 225.717,57.9558 226.217,57.2891 226.5,56.5 Z"/></g>
<g><path style="opacity:1" fill="#3686ca" d="M 394.5,67.5 C 389.5,67.5 384.5,67.5 379.5,67.5C 379.5,88.1667 379.5,108.833 379.5,129.5C 377.562,133.169 374.562,134.336 370.5,133C 369.299,132.097 368.465,130.931 368,129.5C 367.5,109.169 367.333,88.8361 367.5,68.5C 362.041,68.8967 356.708,68.3967 351.5,67C 348.408,62.8821 349.075,59.5488 353.5,57C 367.167,56.3333 380.833,56.3333 394.5,57C 398.213,58.6912 399.379,61.5245 398,65.5C 397.184,66.8228 396.017,67.4894 394.5,67.5 Z"/></g>
<g><path style="opacity:1" fill="#f5ddce" d="M 118.5,92.5 C 116.251,96.2522 112.918,97.4188 108.5,96C 98.6389,90.8107 88.4723,86.6441 78,83.5C 77.5017,80.1832 77.335,76.8499 77.5,73.5C 80.1873,73.3359 82.854,73.5026 85.5,74C 86.1667,75 86.8333,76 87.5,77C 95.4487,80.5704 103.782,82.4038 112.5,82.5C 112.31,78.9682 112.977,75.6348 114.5,72.5C 116.263,66.7943 119.597,62.2943 124.5,59C 132.159,58.3288 135.326,61.8288 134,69.5C 129.319,77.5407 124.152,85.2074 118.5,92.5 Z"/></g>
<g><path style="opacity:1" fill="#f4ddce" d="M 144.5,59.5 C 149.954,59.4858 154.787,61.1524 159,64.5C 159.604,71.6796 159.437,78.8462 158.5,86C 158.468,90.1027 159.468,93.936 161.5,97.5C 160.2,100.658 157.867,102.658 154.5,103.5C 152.925,88.529 149.592,73.8623 144.5,59.5 Z"/></g>
<g><path style="opacity:1" fill="#a4c9e8" d="M 394.5,67.5 C 390.03,68.4861 385.363,68.8195 380.5,68.5C 380.83,89.0069 380.497,109.34 379.5,129.5C 379.5,108.833 379.5,88.1667 379.5,67.5C 384.5,67.5 389.5,67.5 394.5,67.5 Z"/></g>
<g><path style="opacity:1" fill="#3385ca" d="M 261.5,74.5 C 277.084,73.7038 287.251,80.7038 292,95.5C 294.108,108.507 290.608,119.673 281.5,129C 267.722,136.796 255.888,134.629 246,122.5C 240.496,110.944 240.162,99.2775 245,87.5C 248.939,81.0478 254.439,76.7145 261.5,74.5 Z"/></g>
<g><path style="opacity:1" fill="#3585ca" d="M 315.5,74.5 C 322.341,73.8382 328.507,75.5049 334,79.5C 336.053,75.7084 339.219,74.5418 343.5,76C 344.333,76.8333 345.167,77.6667 346,78.5C 346.924,98.2046 346.59,117.871 345,137.5C 338.583,153.105 327.083,158.605 310.5,154C 306.131,152.733 302.297,150.567 299,147.5C 296.21,142.792 297.21,139.459 302,137.5C 306.774,139.804 311.608,141.971 316.5,144C 327.626,145.54 333.126,140.707 333,129.5C 315.18,137.594 303.18,132.261 297,113.5C 292.497,95.1807 298.663,82.1807 315.5,74.5 Z"/></g>
<g><path style="opacity:1" fill="#3987cb" d="M 412.5,74.5 C 419.327,73.8253 422.16,76.8253 421,83.5C 415.656,86.3372 410.656,89.6705 406,93.5C 404.706,105.738 404.039,118.071 404,130.5C 400,134.5 396,134.5 392,130.5C 391.333,113.167 391.333,95.8333 392,78.5C 396.756,74.3424 401.256,74.6757 405.5,79.5C 407.724,77.566 410.058,75.8994 412.5,74.5 Z"/></g>
<g><path style="opacity:1" fill="#3485ca" d="M 441.5,74.5 C 448.253,74.0629 454.42,75.7296 460,79.5C 463.203,73.8644 467.203,73.1977 472,77.5C 472.667,94.8333 472.667,112.167 472,129.5C 470.309,133.213 467.475,134.379 463.5,133C 461.951,131.786 460.785,130.286 460,128.5C 440.5,138.42 427.834,132.754 422,111.5C 419.113,93.9294 425.613,81.5961 441.5,74.5 Z"/></g>
<g><path style="opacity:1" fill="#3485ca" d="M 498.5,74.5 C 504.319,74.2763 509.985,75.1096 515.5,77C 520.758,79.5659 521.758,83.2326 518.5,88C 512.273,86.9471 505.94,86.6138 499.5,87C 495.183,89.3151 492.35,92.8151 491,97.5C 488.787,106.681 490.953,114.515 497.5,121C 499.534,122.006 501.7,122.506 504,122.5C 508.075,121.796 512.075,120.796 516,119.5C 521.09,119.849 522.757,122.515 521,127.5C 518.374,130.231 515.207,132.064 511.5,133C 493.875,135.945 483.041,128.779 479,111.5C 475.857,93.8701 482.357,81.5367 498.5,74.5 Z"/></g>
<g><path style="opacity:1" fill="#3384ca" d="M 590.5,74.5 C 605.508,73.584 615.341,80.2507 620,94.5C 620.667,98.1667 620.667,101.833 620,105.5C 618.786,107.049 617.286,108.215 615.5,109C 604.172,109.5 592.838,109.667 581.5,109.5C 583.814,119.663 590.147,123.829 600.5,122C 605.289,120.031 609.956,117.864 614.5,115.5C 619.15,116.266 620.65,118.932 619,123.5C 607.977,134.11 595.477,136.277 581.5,130C 569.707,119.541 566.207,106.707 571,91.5C 574.936,82.7207 581.436,77.054 590.5,74.5 Z"/></g>
<g><path style="opacity:1" fill="#3184ca" d="M 647.5,74.5 C 655.201,73.9705 657.535,77.3039 654.5,84.5C 649.112,86.6103 644.279,89.6103 640,93.5C 638.706,105.738 638.039,118.071 638,130.5C 637.5,131.667 636.667,132.5 635.5,133C 632.331,133.978 629.497,133.478 627,131.5C 626.333,113.5 626.333,95.5 627,77.5C 632.078,74.1779 636.078,75.1779 639,80.5C 641.671,78.0976 644.505,76.0976 647.5,74.5 Z"/></g>
<g><path style="opacity:1" fill="#fafcfd" d="M 261.5,86.5 C 269.924,84.6279 275.757,87.6279 279,95.5C 281.371,103.122 280.704,110.455 277,117.5C 265.579,126.175 257.913,123.508 254,109.5C 251.456,99.9676 253.956,92.3009 261.5,86.5 Z"/></g>
<g><path style="opacity:1" fill="#fbfcfd" d="M 316.5,86.5 C 325.559,85.0626 331.393,88.7293 334,97.5C 335.948,106.015 334.114,113.515 328.5,120C 318.559,125.059 312.059,122.225 309,111.5C 308.333,106.167 308.333,100.833 309,95.5C 310.642,91.6997 313.142,88.6997 316.5,86.5 Z"/></g>
<g><path style="opacity:1" fill="#fafcfd" d="M 441.5,86.5 C 449.652,84.4056 455.486,87.0723 459,94.5C 462.134,104.453 460.3,113.286 453.5,121C 444.757,124.709 438.59,122.209 435,113.5C 432.602,105.548 433.268,97.8814 437,90.5C 438.397,88.9297 439.897,87.5964 441.5,86.5 Z"/></g>
<g><path style="opacity:1" fill="#fbfdfe" d="M 607.5,95.5 C 607.5,96.5 607.5,97.5 607.5,98.5C 599.167,98.5 590.833,98.5 582.5,98.5C 582.5,97.5 582.5,96.5 582.5,95.5C 586.577,86.6427 593.244,84.1427 602.5,88C 605.2,89.8567 606.866,92.3567 607.5,95.5 Z"/></g>
<g><path style="opacity:1" fill="#b5d3eb" d="M 582.5,95.5 C 582.5,96.5 582.5,97.5 582.5,98.5C 590.833,98.5 599.167,98.5 607.5,98.5C 607.5,97.5 607.5,96.5 607.5,95.5C 608.434,96.5676 608.768,97.901 608.5,99.5C 599.5,99.5 590.5,99.5 581.5,99.5C 581.232,97.901 581.566,96.5676 582.5,95.5 Z"/></g>
<g><path style="opacity:1" fill="#21659a" d="M 122.5,110.5 C 125.273,111.657 128.273,112.324 131.5,112.5C 131.8,119.269 131.8,125.936 131.5,132.5C 127.63,134.017 123.796,135.684 120,137.5C 119.098,137.257 118.265,136.923 117.5,136.5C 113.973,130.779 110.973,124.779 108.5,118.5C 108.414,117.504 108.748,116.671 109.5,116C 113.635,113.597 117.968,111.763 122.5,110.5 Z"/></g>
<g><path style="opacity:1" fill="#377baa" d="M 131.5,112.5 C 139.138,113.313 146.804,113.646 154.5,113.5C 154.205,115.735 154.539,117.735 155.5,119.5C 156.935,124.577 157.268,129.577 156.5,134.5C 149.706,136.859 142.706,138.192 135.5,138.5C 134.289,136.37 132.956,134.37 131.5,132.5C 131.8,125.936 131.8,119.269 131.5,112.5 Z"/></g>
<g><path style="opacity:1" fill="#f5ddce" d="M 108.5,118.5 C 110.973,124.779 113.973,130.779 117.5,136.5C 113.901,137.103 111.568,139.103 110.5,142.5C 112.912,151.679 113.912,161.013 113.5,170.5C 112.48,172.352 110.98,173.685 109,174.5C 106.721,173.609 104.554,172.609 102.5,171.5C 102.804,170.85 103.137,170.183 103.5,169.5C 99.4124,157.408 96.0791,145.074 93.5,132.5C 93.4062,130.088 94.4062,128.255 96.5,127C 100.354,123.911 104.354,121.078 108.5,118.5 Z"/></g>
<g><path style="opacity:1" fill="#f5ddce" d="M 156.5,134.5 C 155.876,138.013 156.876,140.847 159.5,143C 169.296,143.81 178.963,145.31 188.5,147.5C 189.665,148.496 190.332,149.829 190.5,151.5C 188.744,153.932 187.41,156.599 186.5,159.5C 185.596,158.791 185.263,157.791 185.5,156.5C 171.834,157.091 158.167,157.258 144.5,157C 141.192,150.865 138.192,144.699 135.5,138.5C 142.706,138.192 149.706,136.859 156.5,134.5 Z"/></g>
<g><path style="opacity:1" fill="#27689c" d="M 190.5,145.5 C 191.586,145.62 192.253,146.287 192.5,147.5C 193,149.5 193.5,151.5 194,153.5C 196.022,154.802 197.522,156.468 198.5,158.5C 198.963,165.98 198.297,173.314 196.5,180.5C 195.325,180.719 194.325,180.386 193.5,179.5C 192.365,176.418 191.365,173.418 190.5,170.5C 190.36,168.876 191.027,167.71 192.5,167C 189.156,166.43 188.823,165.264 191.5,163.5C 188.203,162.858 187.869,161.691 190.5,160C 189.207,159.51 187.873,159.343 186.5,159.5C 187.41,156.599 188.744,153.932 190.5,151.5C 190.332,149.829 189.665,148.496 188.5,147.5C 188.5,146.167 189.167,145.5 190.5,145.5 Z"/></g>
<g><path style="opacity:1" fill="#4d98d6" d="M 190.5,145.5 C 193.396,144.225 196.396,144.225 199.5,145.5C 198.564,149.735 198.231,154.069 198.5,158.5C 197.522,156.468 196.022,154.802 194,153.5C 193.5,151.5 193,149.5 192.5,147.5C 192.253,146.287 191.586,145.62 190.5,145.5 Z"/></g>
<g><path style="opacity:1" fill="#c9d4dc" d="M 199.5,145.5 C 200.833,145.5 202.167,145.5 203.5,145.5C 203.281,153.847 202.781,162.18 202,170.5C 201.44,174.627 199.607,177.96 196.5,180.5C 198.297,173.314 198.963,165.98 198.5,158.5C 198.231,154.069 198.564,149.735 199.5,145.5 Z"/></g>
<g><path style="opacity:1" fill="#b4c7d6" d="M 186.5,159.5 C 187.873,159.343 189.207,159.51 190.5,160C 187.869,161.691 188.203,162.858 191.5,163.5C 188.823,165.264 189.156,166.43 192.5,167C 191.027,167.71 190.36,168.876 190.5,170.5C 188.796,167.061 187.462,163.395 186.5,159.5 Z"/></g>
<g><path style="opacity:1" fill="#2a699c" d="M 113.5,170.5 C 115.5,170.5 116.5,171.5 116.5,173.5C 114.727,174.892 112.727,176.059 110.5,177C 108.393,178.264 107.393,180.097 107.5,182.5C 100.279,186.078 92.6124,187.745 84.5,187.5C 83.2006,185.847 83.5339,184.347 85.5,183C 88.2947,181.7 90.9613,180.2 93.5,178.5C 96.3155,181.257 96.9822,180.757 95.5,177C 96.7425,176.689 97.7425,177.189 98.5,178.5C 98.8333,177.167 99.1667,175.833 99.5,174.5C 100.451,175.326 101.451,175.492 102.5,175C 101.209,173.708 101.209,172.542 102.5,171.5C 104.554,172.609 106.721,173.609 109,174.5C 110.98,173.685 112.48,172.352 113.5,170.5 Z"/></g>
<g><path style="opacity:1" fill="#4093d5" d="M 116.5,173.5 C 118.04,175.838 118.706,178.505 118.5,181.5C 114.731,181.244 111.064,181.577 107.5,182.5C 107.393,180.097 108.393,178.264 110.5,177C 112.727,176.059 114.727,174.892 116.5,173.5 Z"/></g>
<g><path style="opacity:1" fill="#c9d5dd" d="M 118.5,181.5 C 119.912,183.23 119.578,184.73 117.5,186C 107.568,188.212 97.5682,189.546 87.5,190C 86.0577,189.623 85.0577,188.79 84.5,187.5C 92.6124,187.745 100.279,186.078 107.5,182.5C 111.064,181.577 114.731,181.244 118.5,181.5 Z"/></g>
</svg>
