<?xml version="1.0" encoding="UTF-8"?>
<!DOCTYPE svg PUBLIC "-//W3C//DTD SVG 1.1//EN" "http://www.w3.org/Graphics/SVG/1.1/DTD/svg11.dtd">
<svg xmlns="http://www.w3.org/2000/svg" version="1.1" width="700px" height="200px" style="shape-rendering:geometricPrecision; text-rendering:geometricPrecision; image-rendering:optimizeQuality; fill-rule:evenodd; clip-rule:evenodd" xmlns:xlink="http://www.w3.org/1999/xlink">
<g><path style="opacity:1" fill="#fefefe" d="M -0.5,-0.5 C 232.833,-0.5 466.167,-0.5 699.5,-0.5C 699.5,66.1667 699.5,132.833 699.5,199.5C 466.167,199.5 232.833,199.5 -0.5,199.5C -0.5,132.833 -0.5,66.1667 -0.5,-0.5 Z"/></g>
<g><path style="opacity:1" fill="#ffad36" d="M 99.5,39.5 C 91.4289,39.7623 88.7622,36.0957 91.5,28.5C 90.672,23.6569 88.0053,22.3235 83.5,24.5C 82.8506,26.6241 82.0173,28.6241 81,30.5C 78.7098,27.4201 76.5431,24.2534 74.5,21C 70.8552,20.6579 68.1885,22.1579 66.5,25.5C 65.5416,25.0472 64.7083,24.3805 64,23.5C 62.9608,17.5183 65.1275,13.0183 70.5,10C 85.249,0.437584 96.749,3.27092 105,18.5C 105.834,24.9881 105.168,31.3214 103,37.5C 102.184,38.8228 101.017,39.4894 99.5,39.5 Z"/></g>
<g><path style="opacity:1" fill="#fedb5f" d="M 99.5,39.5 C 99.8782,41.921 100.545,44.2543 101.5,46.5C 97.452,47.3579 93.7853,49.0245 90.5,51.5C 89.5386,49.7354 89.2053,47.7354 89.5,45.5C 86.3017,46.3463 83.135,47.3463 80,48.5C 76.2249,47.7353 73.2249,45.7353 71,42.5C 68.0982,37.1407 66.5982,31.4741 66.5,25.5C 68.1885,22.1579 70.8552,20.6579 74.5,21C 76.5431,24.2534 78.7098,27.4201 81,30.5C 82.0173,28.6241 82.8506,26.6241 83.5,24.5C 88.0053,22.3235 90.672,23.6569 91.5,28.5C 88.7622,36.0957 91.4289,39.7623 99.5,39.5 Z"/></g>
<g><path style="opacity:1" fill="#3b88cb" d="M 685.5,42.5 C 685.5,44.8333 685.5,47.1667 685.5,49.5C 528.167,49.5 370.833,49.5 213.5,49.5C 213.5,47.1667 213.5,44.8333 213.5,42.5C 370.833,42.5 528.167,42.5 685.5,42.5 Z"/></g>
<g><path style="opacity:1" fill="#458ac0" d="M 101.5,46.5 C 108.444,47.4344 113.444,51.1011 116.5,57.5C 121.76,72.3824 125.093,87.7157 126.5,103.5C 126.833,106.833 127.167,110.167 127.5,113.5C 119.082,113.802 110.748,113.469 102.5,112.5C 98.7657,112.677 95.0991,112.344 91.5,111.5C 92.3909,110.739 93.0576,109.739 93.5,108.5C 91.7861,103.264 90.4527,97.9309 89.5,92.5C 95.4866,84.5381 100.987,76.2047 106,67.5C 106.521,59.3669 102.687,56.2002 94.5,58C 90.1025,62.2083 86.7692,67.0416 84.5,72.5C 83.0669,64.3456 85.0669,57.3456 90.5,51.5C 93.7853,49.0245 97.452,47.3579 101.5,46.5 Z"/></g>
<g><path style="opacity:1" fill="#edf4f9" d="M 685.5,42.5 C 686.473,44.9479 686.806,47.6146 686.5,50.5C 644.663,50.168 602.997,50.5014 561.5,51.5C 558.5,50.1667 555.5,50.1667 552.5,51.5C 439.5,50.8333 326.5,50.1667 213.5,49.5C 370.833,49.5 528.167,49.5 685.5,49.5C 685.5,47.1667 685.5,44.8333 685.5,42.5 Z"/></g>
<g><path style="opacity:1" fill="#3384ca" d="M 561.5,51.5 C 562.974,52.4363 563.974,53.7697 564.5,55.5C 564.333,67.1714 564.5,78.8381 565,90.5C 565.717,89.9558 566.217,89.2891 566.5,88.5C 572.287,83.4351 578.287,78.6017 584.5,74C 593.549,74.4096 595.715,78.5763 591,86.5C 585.926,90.9523 580.759,95.2856 575.5,99.5C 581.485,105.986 587.652,112.319 594,118.5C 599.55,128.438 596.716,132.938 585.5,132C 578.82,125.461 572.487,118.628 566.5,111.5C 566.217,110.711 565.717,110.044 565,109.5C 564.501,114.823 564.334,120.156 564.5,125.5C 562.494,132.497 558.161,134.33 551.5,131C 550.283,129.352 549.45,127.519 549,125.5C 548.333,102.167 548.333,78.8333 549,55.5C 549.66,53.6763 550.827,52.343 552.5,51.5C 555.5,50.1667 558.5,50.1667 561.5,51.5 Z"/></g>
<g><path style="opacity:1" fill="#3886cb" d="M 230.5,55.5 C 235.635,54.4262 239.468,56.0928 242,60.5C 242.667,82.8333 242.667,105.167 242,127.5C 238.875,141.157 230.375,146.324 216.5,143C 207.192,140.623 205.192,135.623 210.5,128C 215.417,128.064 220.25,127.897 225,127.5C 225.333,105.167 225.667,82.8333 226,60.5C 227.025,58.313 228.525,56.6464 230.5,55.5 Z"/></g>
<g><path style="opacity:1" fill="#3384ca" d="M 406.5,70.5 C 402.5,70.5 398.5,70.5 394.5,70.5C 394.5,89.1667 394.5,107.833 394.5,126.5C 392.373,132.125 388.373,133.958 382.5,132C 380.951,130.786 379.785,129.286 379,127.5C 378.5,108.503 378.333,89.5029 378.5,70.5C 373.821,70.6658 369.155,70.4992 364.5,70C 360.052,66.6438 359.385,62.6438 362.5,58C 364.087,57.1376 365.754,56.4709 367.5,56C 381.547,55.0914 395.547,55.4248 409.5,57C 412.394,59.9087 413.227,63.4087 412,67.5C 410.512,69.16 408.679,70.16 406.5,70.5 Z"/></g>
<g><path style="opacity:1" fill="#fddb61" d="M 89.5,92.5 C 87.098,96.0785 83.7647,97.2451 79.5,96C 71.7118,92.606 64.0451,88.9394 56.5,85C 47.5205,86.0182 44.3539,82.1849 47,73.5C 49.7372,72.3895 52.5706,72.2228 55.5,73C 56.68,75.5978 58.68,77.2645 61.5,78C 68.3302,80.2909 75.3302,81.7909 82.5,82.5C 83.1667,79.1667 83.8333,75.8333 84.5,72.5C 86.7692,67.0416 90.1025,62.2083 94.5,58C 102.687,56.2002 106.521,59.3669 106,67.5C 100.987,76.2047 95.4866,84.5381 89.5,92.5 Z"/></g>
<g><path style="opacity:1" fill="#fddb61" d="M 116.5,57.5 C 120.031,58.7575 123.698,59.5908 127.5,60C 129.552,60.9299 131.052,62.4299 132,64.5C 132.583,71.8449 132.416,79.1782 131.5,86.5C 131.175,90.6827 132.175,94.516 134.5,98C 132.738,101.055 130.072,102.888 126.5,103.5C 125.093,87.7157 121.76,72.3824 116.5,57.5 Z"/></g>
<g><path style="opacity:1" fill="#a4c9e7" d="M 564.5,55.5 C 565.167,66.5 565.833,77.5 566.5,88.5C 566.217,89.2891 565.717,89.9558 565,90.5C 564.5,78.8381 564.333,67.1714 564.5,55.5 Z"/></g>
<g><path style="opacity:1" fill="#bad6ed" d="M 406.5,70.5 C 403.038,71.4816 399.371,71.815 395.5,71.5C 395.83,90.0076 395.497,108.341 394.5,126.5C 394.5,107.833 394.5,89.1667 394.5,70.5C 398.5,70.5 402.5,70.5 406.5,70.5 Z"/></g>
<g><path style="opacity:1" fill="#3284ca" d="M 267.5,73.5 C 292.814,72.3133 304.314,84.3133 302,109.5C 298.155,127.013 287.322,134.846 269.5,133C 258.46,129.295 251.627,121.795 249,110.5C 245.644,93.2122 251.81,80.8789 267.5,73.5 Z"/></g>
<g><path style="opacity:1" fill="#3384ca" d="M 324.5,73.5 C 331.634,72.6468 338.301,73.9802 344.5,77.5C 349.703,73.2565 354.536,73.5898 359,78.5C 359.667,95.5 359.667,112.5 359,129.5C 354.843,150.015 342.343,158.182 321.5,154C 314.253,152.574 309.253,148.574 306.5,142C 306.738,137.596 309.072,135.429 313.5,135.5C 317.325,136.164 320.992,137.331 324.5,139C 334.129,142.684 340.463,139.684 343.5,130C 343.167,129.5 342.833,129 342.5,128.5C 325.43,136.391 313.596,131.391 307,113.5C 302.276,95.3005 308.109,81.9671 324.5,73.5 Z"/></g>
<g><path style="opacity:1" fill="#3184ca" d="M 427.5,73.5 C 435.712,72.2256 439.546,75.5589 439,83.5C 438.535,84.9308 437.701,86.0975 436.5,87C 430.959,88.685 426.126,91.5183 422,95.5C 421.667,106.167 421.333,116.833 421,127.5C 418.459,132.069 414.625,133.569 409.5,132C 407.951,130.786 406.785,129.286 406,127.5C 405.333,111.167 405.333,94.8333 406,78.5C 407.529,75.484 410.029,74.1506 413.5,74.5C 416.798,74.1296 419.132,75.463 420.5,78.5C 422.724,76.566 425.058,74.8994 427.5,73.5 Z"/></g>
<g><path style="opacity:1" fill="#3384ca" d="M 458.5,73.5 C 465.169,72.7774 471.336,74.1108 477,77.5C 482.401,71.9005 487.401,72.2338 492,78.5C 492.667,94.5 492.667,110.5 492,126.5C 489.983,131.924 486.15,133.758 480.5,132C 479.315,130.647 477.981,129.48 476.5,128.5C 457.942,136.643 445.442,130.976 439,111.5C 435.263,93.3018 441.763,80.6352 458.5,73.5 Z"/></g>
<g><path style="opacity:1" fill="#3284ca" d="M 517.5,73.5 C 525.206,72.6646 532.539,73.8312 539.5,77C 543.948,80.3562 544.615,84.3562 541.5,89C 539.966,89.923 538.299,90.423 536.5,90.5C 520.502,85.0027 513.002,90.6694 514,107.5C 515.052,113.886 518.719,117.552 525,118.5C 529.062,117.651 533.062,116.651 537,115.5C 539.667,115.167 541.667,116.167 543,118.5C 543.79,121.634 543.457,124.634 542,127.5C 526.483,137.285 513.15,134.952 502,120.5C 492.377,99.6633 497.543,83.9967 517.5,73.5 Z"/></g>
<g><path style="opacity:1" fill="#3384ca" d="M 641.5,108.5 C 631.5,108.5 621.5,108.5 611.5,108.5C 611.263,109.791 611.596,110.791 612.5,111.5C 615.459,117.973 620.459,120.139 627.5,118C 632.391,116.304 637.224,114.471 642,112.5C 646.167,112.667 648.333,114.833 648.5,119C 647.13,122.734 644.797,125.734 641.5,128C 626.45,136.715 612.95,134.882 601,122.5C 593.735,109.409 593.735,96.4089 601,83.5C 609.513,73.5829 620.013,70.7495 632.5,75C 645.009,81.1909 650.176,91.0242 648,104.5C 646.362,106.734 644.195,108.067 641.5,108.5 Z"/></g>
<g><path style="opacity:1" fill="#3284ca" d="M 676.5,73.5 C 687.515,73.0652 690.515,77.5652 685.5,87C 680.771,88.782 676.271,90.9486 672,93.5C 670.71,104.737 670.043,116.07 670,127.5C 667.459,132.069 663.625,133.569 658.5,132C 656.951,130.786 655.785,129.286 655,127.5C 654.333,110.833 654.333,94.1667 655,77.5C 657.909,74.6061 661.409,73.7728 665.5,75C 667.303,75.6368 668.636,76.8035 669.5,78.5C 671.724,76.566 674.058,74.8994 676.5,73.5 Z"/></g>
<g><path style="opacity:1" fill="#fafcfd" d="M 617.5,87.5 C 621.637,87.1463 625.637,87.6463 629.5,89C 631.747,90.995 632.747,93.495 632.5,96.5C 625.492,96.6663 618.492,96.4996 611.5,96C 612.913,92.7538 614.913,89.9205 617.5,87.5 Z"/></g>
<g><path style="opacity:1" fill="#fbfcfe" d="M 270.5,88.5 C 278.001,86.833 283.168,89.4997 286,96.5C 287.49,103.411 286.323,109.744 282.5,115.5C 273.58,121.104 267.747,118.771 265,108.5C 262.927,100.587 264.761,93.9205 270.5,88.5 Z"/></g>
<g><path style="opacity:1" fill="#fafcfd" d="M 328.5,88.5 C 335.128,87.231 339.961,89.5644 343,95.5C 343.851,101.253 343.517,106.92 342,112.5C 332.227,121.868 325.56,119.868 322,106.5C 320.552,99.085 322.719,93.085 328.5,88.5 Z"/></g>
<g><path style="opacity:1" fill="#fafbfd" d="M 461.5,88.5 C 467.343,87.6745 471.843,89.6745 475,94.5C 477.495,101.554 476.828,108.221 473,114.5C 465.008,119.802 459.008,118.136 455,109.5C 454.161,104.079 454.494,98.7455 456,93.5C 457.73,91.5981 459.563,89.9314 461.5,88.5 Z"/></g>
<g><path style="opacity:1" fill="#bbd7ee" d="M 641.5,108.5 C 631.624,108.843 621.957,109.843 612.5,111.5C 611.596,110.791 611.263,109.791 611.5,108.5C 621.5,108.5 631.5,108.5 641.5,108.5 Z"/></g>
<g><path style="opacity:1" fill="#a4c9e7" d="M 566.5,111.5 C 565.833,116.167 565.167,120.833 564.5,125.5C 564.334,120.156 564.501,114.823 565,109.5C 565.717,110.044 566.217,110.711 566.5,111.5 Z"/></g>
<g><path style="opacity:1" fill="#216499" d="M 91.5,111.5 C 95.0991,112.344 98.7657,112.677 102.5,112.5C 102.267,118.601 102.933,124.601 104.5,130.5C 104.315,131.584 103.982,132.584 103.5,133.5C 99.5811,134.793 95.9145,136.626 92.5,139C 91.0715,139.579 89.7382,139.412 88.5,138.5C 85.2409,132.314 82.2409,125.981 79.5,119.5C 79.281,118.325 79.6143,117.325 80.5,116.5C 83.9041,114.254 87.5708,112.588 91.5,111.5 Z"/></g>
<g><path style="opacity:1" fill="#397caa" d="M 102.5,112.5 C 110.748,113.469 119.082,113.802 127.5,113.5C 128.067,120.899 129.067,128.232 130.5,135.5C 128.901,135.232 127.568,135.566 126.5,136.5C 120.725,138.722 114.725,140.056 108.5,140.5C 107.504,140.586 106.671,140.252 106,139.5C 105.76,137.148 104.927,135.148 103.5,133.5C 103.982,132.584 104.315,131.584 104.5,130.5C 102.933,124.601 102.267,118.601 102.5,112.5 Z"/></g>
<g><path style="opacity:1" fill="#fddb60" d="M 79.5,119.5 C 82.2409,125.981 85.2409,132.314 88.5,138.5C 84.5925,138.442 82.2592,140.275 81.5,144C 83.5567,153.727 84.5567,163.56 84.5,173.5C 81.1151,178.815 77.7818,178.815 74.5,173.5C 70.3312,160.332 66.6646,146.999 63.5,133.5C 63.4062,131.088 64.4062,129.255 66.5,128C 70.7159,124.944 75.0493,122.111 79.5,119.5 Z"/></g>
<g><path style="opacity:1" fill="#fedc60" d="M 126.5,136.5 C 127.376,136.369 128.043,136.702 128.5,137.5C 129.106,139.709 129.773,141.876 130.5,144C 141.37,144.875 152.036,146.708 162.5,149.5C 165.667,153.824 164.667,156.824 159.5,158.5C 145.521,159.576 131.521,159.743 117.5,159C 114.837,157.199 113.003,154.699 112,151.5C 110.726,147.846 109.56,144.18 108.5,140.5C 114.725,140.056 120.725,138.722 126.5,136.5 Z"/></g>
<g><path style="opacity:1" fill="#27679b" d="M 163.5,147.5 C 164.5,147.5 165.5,147.5 166.5,147.5C 166.678,150.216 167.178,152.883 168,155.5C 170.253,157.035 171.753,159.035 172.5,161.5C 172.963,168.98 172.297,176.314 170.5,183.5C 169.325,183.719 168.325,183.386 167.5,182.5C 166.576,179.302 165.576,176.135 164.5,173C 164.844,171.635 165.511,170.468 166.5,169.5C 161.938,168.86 161.604,167.694 165.5,166C 162.156,165.43 161.823,164.264 164.5,162.5C 163.349,161.269 162.183,161.269 161,162.5C 159.812,161.437 159.312,160.103 159.5,158.5C 164.667,156.824 165.667,153.824 162.5,149.5C 162.328,148.508 162.662,147.842 163.5,147.5 Z"/></g>
<g><path style="opacity:1" fill="#4695d5" d="M 163.5,147.5 C 166.731,146.218 170.064,146.218 173.5,147.5C 172.686,152.119 172.353,156.786 172.5,161.5C 171.753,159.035 170.253,157.035 168,155.5C 167.178,152.883 166.678,150.216 166.5,147.5C 165.5,147.5 164.5,147.5 163.5,147.5 Z"/></g>
<g><path style="opacity:1" fill="#c7d3db" d="M 173.5,147.5 C 174.833,147.5 176.167,147.5 177.5,147.5C 177.645,156.203 177.145,164.87 176,173.5C 175.44,177.627 173.607,180.96 170.5,183.5C 172.297,176.314 172.963,168.98 172.5,161.5C 172.353,156.786 172.686,152.119 173.5,147.5 Z"/></g>
<g><path style="opacity:1" fill="#29689b" d="M 74.5,173.5 C 77.7818,178.815 81.1151,178.815 84.5,173.5C 86.5,173.5 87.5,174.5 87.5,176.5C 85.604,177.481 83.604,178.481 81.5,179.5C 79.585,181.071 78.585,183.071 78.5,185.5C 74.4849,186.895 70.4849,188.395 66.5,190C 62.5138,190.499 58.5138,190.666 54.5,190.5C 53.2006,188.847 53.5339,187.347 55.5,186C 58.3286,184.753 60.9952,183.253 63.5,181.5C 64.4776,181.977 65.3109,182.643 66,183.5C 66.3333,182.167 66.6667,180.833 67,179.5C 67.6891,180.357 68.5224,181.023 69.5,181.5C 70.0959,180.284 70.2626,178.951 70,177.5C 71.0847,179.657 72.2513,179.824 73.5,178C 70.7416,175.903 71.0749,174.403 74.5,173.5 Z"/></g>
<g><path style="opacity:1" fill="#3f93d5" d="M 87.5,176.5 C 89.0395,178.838 89.7062,181.505 89.5,184.5C 85.7657,184.323 82.0991,184.656 78.5,185.5C 78.585,183.071 79.585,181.071 81.5,179.5C 83.604,178.481 85.604,177.481 87.5,176.5 Z"/></g>
<g><path style="opacity:1" fill="#c8d4dc" d="M 89.5,184.5 C 90.8009,185.884 90.8009,187.384 89.5,189C 82.7406,189.904 76.074,191.237 69.5,193C 65.1667,193.667 60.8333,193.667 56.5,193C 55.244,192.583 54.5774,191.75 54.5,190.5C 58.5138,190.666 62.5138,190.499 66.5,190C 70.4849,188.395 74.4849,186.895 78.5,185.5C 82.0991,184.656 85.7657,184.323 89.5,184.5 Z"/></g>
</svg>
